<?xml version="1.0" encoding="UTF-8"?>
<svg id="Layer_1" xmlns="http://www.w3.org/2000/svg" version="1.1" viewBox="0 0 159.2 140.6">
  <!-- Generator: Adobe Illustrator 29.0.0, SVG Export Plug-In . SVG Version: 2.1.0 Build 186)  -->
  <defs>
    <style>
      .st0 {
        fill: #e5bb48;
      }

      .st1 {
        fill: #f2f1f0;
      }

      .st2 {
        fill: #161515;
      }
    </style>
  </defs>
  <g id="QlFHUy.tif">
    <g>
      <path class="st2" d="M88.1,41.6c.9.2,1-.4,1.5-.7,12.4-9.6,22.3-23.3,39-27,27-6,39.9,19.1,23,39.5-12.5,15-36,22.5-55,23.8l8.2,9c6.7,8.5,11.9,19.6,12.3,30.7s-.6,5.5-.4,6.4c.3,1.4,5.5,8.6,6.7,10.9s2.5,4.1,2.2,6.5c-1.2.1-2.3,0-3.4-.3-4-1-11.4-5.7-14.9-6s-7,2.3-9,2.8c-8.2,2.1-16.5,2.6-25,2.1-24.6-1.6-42.6-18.9-43.9-43.6-13.3-1.4-24-9.3-25.2-23.3s3.6-21,12.5-27.4,3.7-.5,3.5-5.1-2.6-13-6.8-14.2-.6,1.7-.9,2.6c-1.7,5.2-11.5,6.1-12.3.6-1.3-8.3,8.1-9.6,14.2-7.2s9.4,12.1,9.8,19.4l14-.5c.3-3.8-1.4-18.1-5.3-19.4s-.8,1-2.2,2.2c-5.6,4.8-13.4-5.1-6.5-8s8.6,0,11.7,2.8c5.7,5,6,17,6.5,24,10.8,4,17.2,15.8,16.3,27,10.1.2,3.5-2.6,1.5-7.2-5.8-13.3-8.6-40-1.1-52.7S67.9-1,74.2.2s7.5,3.8,8.4,4.6,3.7,6.2,4.2,7.8c3.4,9.1,3.4,19.6,1.3,29ZM69.9,7.2c-1.3.3-4.3,3.3-5.1,4.4-7.1,9.9-4.6,33.7-.2,44.6s4.3,9.1,5.6,8.9,4.1-7.1,4.7-8.3c4.1-8.6,8.1-19.8,7.6-29.4s-3.5-22.2-12.7-20.1ZM101.4,39.9c-7.7,7-18.5,17.2-23.5,26.3s-1.5,4,3,4.4c20.3,1.9,51.8-5.3,65.2-21.8s9.3-21.3-1.6-26.8c-14.6-7.3-32.9,8.7-43,17.9ZM37.2,103.5c1.2.8,8-1.4,9.5-2.1,7.6-3.2,21.1-15.2,25.3-22.2.9-1.5,2.6-3.7.3-4.1-3.6-.7-7.9-.4-11.5-1s-1.8-1.5-2.8-.8c-1,2.9-2,5.8-3.6,8.4s-4.7,6.7-6.4,8.1c-3.4,2.9-8.7,4.9-13,5.7.5,1.2,1.4,7.5,2.1,7.9ZM84.4,78.1c-.9.3-6.9,10.5-8.3,12.2-5.8,7.1-15.6,15.1-24,19-1.4.7-9,3.3-9.3,3.7-.7,1.1,1.3,4.4,2.1,5.5s5.2,5.7,6.3,5.4,6.9-3.2,8.5-4.1c12.9-6.9,22.5-16.8,29.4-29.6.9-1.7,3.9-6.9,3.4-8.4s-6.6-4.3-8.1-3.8ZM63.1,130.6c1.4,1.6,12.7,2.9,15,2.3,6-1.6,19.1-16.1,22.4-21.6s4.9-9,5.1-9.9c.4-2.2-2.3-8-4-9.5s-.7-1.1-1.3-.2c-4.1,14-15.6,26.3-27.9,33.6-2.7,1.6-6.2,2.7-8.7,4.3s-1.4.3-.6,1.1ZM94.6,132.1c11-1.2,20.8-6.9,15.7-19.5l-8.3,11.7c-1.9,2.2-4.2,4-6.3,6s-1.4.8-1.2,1.8Z"/>
      <path class="st1" d="M101.4,39.9c10.1-9.2,28.5-25.2,43-17.9,10.9,5.5,8.1,18.9,1.6,26.8-13.4,16.5-44.9,23.6-65.2,21.8s-5.1-.6-3-4.4c5-9,15.8-19.3,23.5-26.3Z"/>
      <path class="st1" d="M69.9,7.2c9.1-2.1,12.3,13.7,12.7,20.1.5,9.6-3.5,20.8-7.6,29.4s-3.9,8.2-4.7,8.3c-1.3.3-5.1-7.5-5.6-8.9-4.4-10.9-6.9-34.7.2-44.6s3.8-4.1,5.1-4.4Z"/>
      <path class="st0" d="M84.4,78.1c1.5-.5,7.7,2.5,8.1,3.8s-2.5,6.7-3.4,8.4c-6.9,12.8-16.5,22.7-29.4,29.6s-7.2,3.8-8.5,4.1-5.5-4.3-6.3-5.4-2.7-4.4-2.1-5.5,7.9-3.1,9.3-3.7c8.3-3.9,18.1-11.9,24-19,1.4-1.7,7.5-11.9,8.3-12.2Z"/>
      <path class="st0" d="M63.1,130.6c-.7-.8.2-.9.6-1.1,2.5-1.6,6-2.7,8.7-4.3,12.3-7.3,23.8-19.6,27.9-33.6.6-.8.7-.2,1.3.2,1.6,1.4,4.4,7.3,4,9.5s-4.3,8.6-5.1,9.9c-3.3,5.5-16.4,20-22.4,21.6s-13.6-.7-15-2.3Z"/>
      <path class="st0" d="M37.2,103.5c-.6-.4-1.6-6.7-2.1-7.9,4.3-.9,9.6-2.9,13-5.7s5.2-6.1,6.4-8.1,2.6-5.5,3.6-8.4c1-.8,1.9.6,2.8.8,3.6.6,7.9.3,11.5,1s.6,2.7-.3,4.1c-4.2,7-17.7,19-25.3,22.2s-8.4,2.8-9.5,2.1Z"/>
      <path class="st0" d="M94.6,132.1c-.2-1,.6-1.2,1.2-1.8,2.1-2,4.4-3.8,6.3-6l8.3-11.7c5.1,12.6-4.7,18.3-15.7,19.5Z"/>
    </g>
  </g>
</svg>